<svg width="374" height="374" viewBox="0 0 374 374" fill="none" xmlns="http://www.w3.org/2000/svg">
<g opacity="0.8" clip-path="url(#clip0_24_57)">
<path d="M63.6386 158.95C64.182 158.758 64.6565 158.409 65.0022 157.948C65.3479 157.486 65.5494 156.933 65.5814 156.357C65.6134 155.782 65.4744 155.21 65.182 154.713C64.8895 154.216 64.4566 153.817 63.9378 153.566C63.419 153.314 62.8374 153.222 62.2663 153.301C61.6952 153.379 61.1601 153.625 60.7283 154.007C60.2965 154.389 59.9873 154.89 59.8396 155.447C59.692 156.004 59.7125 156.593 59.8986 157.138C60.1634 157.868 60.7023 158.465 61.4007 158.803C62.0992 159.142 62.902 159.194 63.6386 158.95Z" fill="#BB662A"/>
<path d="M310.478 38.8025C311.201 39.0409 311.988 38.9882 312.672 38.6557C313.356 38.3231 313.883 37.7369 314.142 37.0217C314.401 36.3064 314.37 35.5184 314.057 34.8252C313.744 34.132 313.173 33.5882 312.465 33.3094C312.105 33.1708 311.721 33.1065 311.335 33.1202C310.95 33.1339 310.571 33.2254 310.222 33.3891C309.873 33.5529 309.56 33.7855 309.303 34.073C309.046 34.3606 308.849 34.6971 308.725 35.0625C308.462 35.7909 308.499 36.5941 308.828 37.2954C309.156 37.9967 309.75 38.5388 310.478 38.8025Z" fill="#BB662A"/>
<path d="M362.313 32.5497L274.656 1.05189C272.468 0.227739 270.136 -0.150175 267.799 -0.0596005C265.463 0.0309735 263.167 0.588204 261.049 1.57928C258.931 2.57036 257.032 3.97525 255.465 5.71123C253.898 7.44721 252.694 9.47918 251.924 11.6875L246.081 28.1669C245.355 27.9077 244.586 27.7944 243.817 27.8334C243.048 27.8724 242.295 28.0631 241.6 28.3943C240.904 28.7256 240.282 29.1909 239.767 29.7637C239.252 30.3364 238.856 31.0052 238.601 31.7316L234.627 42.6594C234.101 44.1163 234.174 45.7225 234.832 47.1251C235.489 48.5277 236.677 49.6119 238.133 50.1394L234.218 61.1256C233.493 60.8665 232.724 60.7531 231.955 60.7922C231.186 60.8312 230.432 61.0218 229.737 61.3531C229.042 61.6843 228.419 62.1497 227.904 62.7224C227.39 63.2951 226.993 63.9639 226.738 64.6903L222.764 75.9688C222.505 76.6938 222.391 77.463 222.431 78.232C222.47 79.001 222.66 79.7547 222.991 80.4498C223.323 81.1449 223.788 81.7677 224.361 82.2823C224.933 82.797 225.602 83.1934 226.329 83.4488L219.375 102.85C208.726 100.613 197.881 99.4381 187 99.3438C159.058 98.9785 131.563 106.383 107.584 120.732C105.099 120.442 102.581 120.722 100.221 121.55L11.6877 151.938C9.50849 152.704 7.50214 153.893 5.78398 155.437C4.06582 156.981 2.66974 158.849 1.67597 160.934C0.682196 163.02 0.110332 165.281 -0.00675924 167.588C-0.12385 169.895 0.216141 172.202 0.993674 174.378L6.83742 190.974C6.06235 191.202 5.34307 191.589 4.725 192.109C4.10694 192.63 3.60353 193.273 3.24657 193.998C2.88961 194.723 2.68687 195.514 2.65114 196.321C2.61541 197.128 2.74747 197.934 3.03899 198.688L6.89586 209.732C7.2945 210.873 8.03674 211.861 9.02045 212.562C10.0042 213.264 11.181 213.643 12.389 213.648C13.029 213.732 13.6774 213.732 14.3174 213.648L18.1159 224.692C16.6519 225.197 15.448 226.262 14.7687 227.653C14.0894 229.045 13.9901 230.649 14.4927 232.114L18.3496 243.158C18.7482 244.299 19.4905 245.288 20.4742 245.989C21.4579 246.69 22.6347 247.069 23.8427 247.074C24.4811 247.181 25.1328 247.181 25.7712 247.074L65.8009 362.313C67.0131 365.741 69.2618 368.708 72.2354 370.803C75.209 372.897 78.7602 374.014 82.3971 374C84.3832 374.012 86.3576 373.696 88.2409 373.065L176.481 342.502C180.873 340.988 184.485 337.793 186.523 333.619C188.561 329.444 188.859 324.632 187.351 320.238L171.339 273.838C176.481 274.306 181.682 274.656 187 274.656C217.687 275.181 247.781 266.178 273.137 248.885L283.597 252.625C285.472 253.295 287.45 253.631 289.441 253.619C293.068 253.621 296.606 252.498 299.568 250.404C302.53 248.311 304.77 245.351 305.979 241.931L372.948 54.9313C374.503 50.5528 374.257 45.7361 372.263 41.5394C370.268 37.3427 366.69 34.1093 362.313 32.5497ZM270.391 12.0381L358.456 43.536C359.39 43.9027 360.215 44.504 360.849 45.2819C361.484 46.0598 361.907 46.9881 362.079 47.9772L354.716 45.3475C352.293 44.5441 349.72 44.3003 347.19 44.6343C344.659 44.9683 342.238 45.8715 340.107 47.276C338.684 48.3087 337.039 48.9945 335.304 49.2786C333.569 49.5627 331.792 49.4372 330.114 48.9122L288.857 34.186C284.883 32.725 283.714 30.0369 282.195 26.5306C281.446 24.102 280.158 21.8737 278.428 20.0119C276.698 18.1502 274.57 16.703 272.202 15.7781L264.781 13.09C265.548 12.4497 266.466 12.0167 267.448 11.8326C268.431 11.6484 269.444 11.7192 270.391 12.0381ZM11.6877 167.482C11.8831 166.508 12.3237 165.599 12.9679 164.842C13.6121 164.086 14.4386 163.506 15.3693 163.158L84.793 139.198C83.1139 141.062 81.5339 143.012 80.0596 145.042L78.774 146.912C77.6052 148.49 76.4949 150.126 75.5015 151.762C74.508 153.398 74.3327 153.632 73.8068 154.626C73.2809 155.619 72.229 157.606 71.5277 159.125V159.418L43.8868 168.826C42.2101 169.339 40.4357 169.447 38.709 169.143C36.9823 168.838 35.3523 168.129 33.9524 167.073C31.069 165.26 27.77 164.214 24.3687 164.034C22.652 164.053 20.9516 164.369 19.343 164.969L11.6877 167.482ZM158.366 272.202L176.306 324.036C176.809 325.501 176.71 327.105 176.03 328.496C175.351 329.888 174.147 330.953 172.683 331.458L84.2671 361.962C82.8444 362.546 81.2486 362.546 79.8259 361.962C78.4303 361.29 77.3583 360.092 76.8455 358.631L12.9734 173.326L21.2715 170.462C22.9487 169.954 24.7221 169.848 26.448 170.152C28.1739 170.457 29.8039 171.164 31.2059 172.215C33.3111 173.65 35.7137 174.59 38.2335 174.964C40.7534 175.338 43.3254 175.138 45.7568 174.378L68.7227 166.43L68.0215 168.592C67.7457 169.433 67.5309 170.292 67.3787 171.163C66.9112 172.975 66.5021 174.787 66.2099 176.598C66.2099 177.416 65.9177 178.234 65.8009 179.111C65.4802 181.729 65.3046 184.363 65.2749 187C65.2669 193.806 66.3318 200.57 68.4305 207.044C72.288 218.479 78.7496 228.862 87.3059 237.373C87.9204 238.054 88.4867 238.776 89.0005 239.535C90.7352 242.133 91.5196 245.25 91.2212 248.359L87.9487 277.578C87.9194 277.87 87.9194 278.163 87.9487 278.455C87.9197 278.805 87.9197 279.157 87.9487 279.507C88.1751 280.672 88.6984 281.759 89.468 282.662C89.858 283.114 90.3106 283.508 90.8121 283.831C91.3607 284.175 91.9495 284.449 92.5652 284.649H93.5002C93.9465 284.705 94.398 284.705 94.8443 284.649H95.7209H96.539C97.1654 284.539 97.7623 284.3 98.2921 283.948L126.751 267.702L128.095 267.118C130.115 266.389 132.287 266.188 134.406 266.533C135.303 266.584 136.189 266.761 137.036 267.059C140.601 268.17 144.282 269.222 148.022 270.098C149.951 270.566 151.938 270.916 153.866 271.325C155.795 271.734 156.905 271.968 158.366 272.202ZM163.625 261.274C155.88 260.109 148.24 258.33 140.776 255.956C137.504 254.929 134.054 254.591 130.645 254.963C127.235 255.335 123.94 256.41 120.966 258.118L100.571 269.806L102.792 249.703C103.195 245.988 102.764 242.229 101.531 238.701C100.298 235.173 98.2927 231.964 95.6624 229.309C84.08 218.233 77.3563 203.021 76.9624 187C76.9514 184.398 77.1468 181.799 77.5468 179.228C77.5468 178.351 77.8974 177.533 78.0727 176.657C78.3724 174.962 78.7626 173.284 79.2415 171.631C79.2415 170.871 79.7674 170.228 80.0012 169.469C80.644 167.716 81.2284 165.963 82.0465 164.209C82.2377 163.789 82.4523 163.379 82.6893 162.982C83.6822 160.981 84.7743 159.031 85.9618 157.138C92.6397 147.054 101.409 138.524 111.674 132.127H111.966C134.46 118.096 160.491 110.778 187 111.031C199.107 111.01 211.173 112.442 222.939 115.297C225.16 115.823 227.381 116.349 229.484 116.992L230.945 117.459L236.789 119.446L239.243 120.381L244.094 122.251L247.6 123.888L251.106 125.524C254.817 127.403 258.935 128.338 263.093 128.246C267.252 128.154 271.324 127.039 274.949 124.998L290.727 115.94L287.337 146.561C287.222 147.825 287.222 149.096 287.337 150.36C287.435 152.34 287.769 154.302 288.331 156.203L288.681 157.548C289.089 158.644 289.557 159.717 290.084 160.762C294.577 168.782 296.969 177.807 297.038 187C297.039 189.425 296.864 191.847 296.512 194.246C296.512 195.59 295.986 196.876 295.694 198.22C295.536 199.225 295.321 200.22 295.051 201.2C294.555 202.962 293.97 204.698 293.298 206.401C293.129 206.898 292.934 207.386 292.714 207.862C291.896 209.849 290.902 211.836 289.85 213.706V214.057C284.455 223.164 277.304 231.11 268.813 237.432C245.019 254.563 216.314 263.523 187 262.969C179.178 262.973 171.365 262.407 163.625 261.274ZM294.876 237.899C294.62 238.626 294.224 239.294 293.709 239.867C293.195 240.44 292.572 240.905 291.877 241.236C291.182 241.568 290.428 241.758 289.659 241.797C288.89 241.836 288.121 241.723 287.396 241.464L283.539 240.061C284.708 239.009 285.701 237.899 286.753 236.847L288.214 235.328C290.201 233.166 292.071 231.003 293.766 228.783C295.567 226.377 297.245 223.88 298.791 221.303C298.791 221.303 298.791 220.66 299.259 220.368C300.486 218.206 301.596 216.102 302.59 213.881C302.94 213.122 303.232 212.303 303.525 211.544C304.226 209.732 304.927 207.979 305.453 206.109C305.453 205.233 306.037 204.298 306.271 203.363C306.505 202.428 307.089 199.681 307.44 197.811C307.44 196.993 307.791 196.116 307.849 195.24C308.22 192.528 308.415 189.795 308.433 187.058C308.381 175.985 305.569 165.099 300.252 155.385C299.122 153.232 298.655 150.792 298.908 148.373C298.908 148.373 298.908 148.081 298.908 147.964L303.875 107.993C303.905 107.701 303.905 107.407 303.875 107.116C303.904 106.766 303.904 106.414 303.875 106.064C303.635 104.921 303.112 103.857 302.356 102.967C301.97 102.55 301.539 102.177 301.07 101.857C300.568 101.556 300.04 101.302 299.492 101.097C298.582 100.823 297.624 100.738 296.679 100.849C295.734 100.959 294.822 101.263 293.999 101.74L270.098 115.356C269.151 115.926 268.128 116.359 267.06 116.641C265.265 116.993 263.419 116.993 261.625 116.641C260.143 116.446 258.702 116.012 257.359 115.356C253.736 113.544 249.937 111.966 246.139 110.447L243.801 109.512C239.886 108.051 235.912 106.765 232.114 105.597L261.976 18.291L270.215 21.2713C274.189 22.6738 275.358 25.4203 276.877 28.8681C277.619 31.3076 278.903 33.5474 280.634 35.4198C282.364 37.2921 284.496 38.7483 286.87 39.6791L328.185 54.4638C330.593 55.2793 333.155 55.5347 335.677 55.2107C338.198 54.8866 340.613 53.9916 342.736 52.5938C344.159 51.561 345.804 50.8753 347.539 50.5912C349.274 50.3071 351.051 50.4325 352.729 50.9575L360.969 53.8794L294.876 237.899Z" fill="#3A3A3A"/>
<path d="M37.9844 111.031V99.3438C37.9844 98.5688 37.6765 97.8256 37.1286 97.2777C36.5806 96.7297 35.8374 96.4219 35.0625 96.4219C34.2876 96.4219 33.5444 96.7297 32.9964 97.2777C32.4485 97.8256 32.1406 98.5688 32.1406 99.3438V111.031C32.1406 111.806 32.4485 112.549 32.9964 113.097C33.5444 113.645 34.2876 113.953 35.0625 113.953C35.8374 113.953 36.5806 113.645 37.1286 113.097C37.6765 112.549 37.9844 111.806 37.9844 111.031Z" fill="#BB662A"/>
<path d="M23.3749 119.797C23.7581 119.801 24.1381 119.726 24.4903 119.575C24.8426 119.424 25.1593 119.201 25.4202 118.92C25.6998 118.658 25.9225 118.341 26.0748 117.989C26.2271 117.638 26.3057 117.258 26.3057 116.875C26.3057 116.492 26.2271 116.112 26.0748 115.761C25.9225 115.409 25.6998 115.092 25.4202 114.83L19.5765 108.986C19.034 108.443 18.2983 108.139 17.5312 108.139C16.764 108.139 16.0283 108.443 15.4859 108.986C14.9434 109.528 14.6387 110.264 14.6387 111.031C14.6387 111.798 14.9434 112.534 15.4859 113.076L21.3296 118.92C21.5905 119.201 21.9073 119.424 22.2595 119.575C22.6118 119.726 22.9917 119.801 23.3749 119.797Z" fill="#BB662A"/>
<path d="M222.063 14.6095C222.446 14.6141 222.826 14.5386 223.178 14.3876C223.53 14.2366 223.847 14.0136 224.108 13.7329C224.387 13.4706 224.61 13.1537 224.762 12.802C224.915 12.4502 224.993 12.0709 224.993 11.6876C224.993 11.3043 224.915 10.925 224.762 10.5732C224.61 10.2214 224.387 9.9046 224.108 9.64227L218.264 3.79852C218.002 3.51901 217.685 3.29623 217.333 3.14395C216.981 2.99166 216.602 2.91309 216.219 2.91309C215.836 2.91309 215.456 2.99166 215.104 3.14395C214.753 3.29623 214.436 3.51901 214.174 3.79852C213.894 4.06085 213.671 4.37768 213.519 4.72946C213.367 5.08124 213.288 5.46051 213.288 5.84384C213.288 6.22717 213.367 6.60643 213.519 6.95821C213.671 7.30999 213.894 7.62682 214.174 7.88915L220.017 13.7329C220.278 14.0136 220.595 14.2366 220.947 14.3876C221.299 14.5386 221.679 14.6141 222.063 14.6095Z" fill="#BB662A"/>
<path d="M201.609 23.375C201.609 24.1499 201.917 24.8931 202.465 25.4411C203.013 25.989 203.756 26.2969 204.531 26.2969H216.219C216.994 26.2969 217.737 25.989 218.285 25.4411C218.833 24.8931 219.141 24.1499 219.141 23.375C219.141 22.6001 218.833 21.8569 218.285 21.3089C217.737 20.761 216.994 20.4531 216.219 20.4531H204.531C203.756 20.4531 203.013 20.761 202.465 21.3089C201.917 21.8569 201.609 22.6001 201.609 23.375Z" fill="#BB662A"/>
<path d="M187 149.016H239.594C240.369 149.016 241.112 148.708 241.66 148.16C242.208 147.612 242.516 146.869 242.516 146.094C242.516 145.319 242.208 144.576 241.66 144.028C241.112 143.48 240.369 143.172 239.594 143.172H187C186.225 143.172 185.482 143.48 184.934 144.028C184.386 144.576 184.078 145.319 184.078 146.094C184.078 146.869 184.386 147.612 184.934 148.16C185.482 148.708 186.225 149.016 187 149.016Z" fill="#BB662A"/>
<path d="M262.969 160.703H187C186.225 160.703 185.482 161.011 184.934 161.559C184.386 162.107 184.078 162.85 184.078 163.625C184.078 164.4 184.386 165.143 184.934 165.691C185.482 166.239 186.225 166.547 187 166.547H262.969C263.744 166.547 264.487 166.239 265.035 165.691C265.583 165.143 265.891 164.4 265.891 163.625C265.891 162.85 265.583 162.107 265.035 161.559C264.487 161.011 263.744 160.703 262.969 160.703Z" fill="#BB662A"/>
<path d="M210.375 178.234H187C186.225 178.234 185.482 178.542 184.934 179.09C184.386 179.638 184.078 180.381 184.078 181.156C184.078 181.931 184.386 182.674 184.934 183.222C185.482 183.77 186.225 184.078 187 184.078H210.375C211.15 184.078 211.893 183.77 212.441 183.222C212.989 182.674 213.297 181.931 213.297 181.156C213.297 180.381 212.989 179.638 212.441 179.09C211.893 178.542 211.15 178.234 210.375 178.234Z" fill="#3A3A3A"/>
<path d="M245.438 178.234H233.75C232.975 178.234 232.232 178.542 231.684 179.09C231.136 179.638 230.828 180.381 230.828 181.156C230.828 181.931 231.136 182.674 231.684 183.222C232.232 183.77 232.975 184.078 233.75 184.078H245.438C246.212 184.078 246.956 183.77 247.504 183.222C248.052 182.674 248.359 181.931 248.359 181.156C248.359 180.381 248.052 179.638 247.504 179.09C246.956 178.542 246.212 178.234 245.438 178.234Z" fill="#BB662A"/>
<path d="M125.641 222.062C127.254 222.062 128.562 220.754 128.562 219.141C128.562 217.527 127.254 216.219 125.641 216.219C124.027 216.219 122.719 217.527 122.719 219.141C122.719 220.754 124.027 222.062 125.641 222.062Z" fill="#BB662A"/>
<path d="M137.328 222.062C138.942 222.062 140.25 220.754 140.25 219.141C140.25 217.527 138.942 216.219 137.328 216.219C135.714 216.219 134.406 217.527 134.406 219.141C134.406 220.754 135.714 222.062 137.328 222.062Z" fill="#BB662A"/>
<path d="M149.016 222.062C150.629 222.062 151.938 220.754 151.938 219.141C151.938 217.527 150.629 216.219 149.016 216.219C147.402 216.219 146.094 217.527 146.094 219.141C146.094 220.754 147.402 222.062 149.016 222.062Z" fill="#BB662A"/>
<path d="M160.703 222.062C162.317 222.062 163.625 220.754 163.625 219.141C163.625 217.527 162.317 216.219 160.703 216.219C159.089 216.219 157.781 217.527 157.781 219.141C157.781 220.754 159.089 222.062 160.703 222.062Z" fill="#3A3A3A"/>
<path d="M172.391 222.062C174.004 222.062 175.312 220.754 175.312 219.141C175.312 217.527 174.004 216.219 172.391 216.219C170.777 216.219 169.469 217.527 169.469 219.141C169.469 220.754 170.777 222.062 172.391 222.062Z" fill="#3A3A3A"/>
</g>
<defs>
<clipPath id="clip0_24_57">
<rect width="374" height="374" fill="white"/>
</clipPath>
</defs>
</svg>
