<svg id="Layer_1" data-name="Layer 1" xmlns="http://www.w3.org/2000/svg" viewBox="0 0 96 96"><path d="M80.08,67.28H16.92A5.89,5.89,0,0,1,11,61.39V21a5.9,5.9,0,0,1,5.89-5.89H80.08A5.9,5.9,0,0,1,86,21V61.39A5.89,5.89,0,0,1,80.08,67.28ZM16.92,17.14A3.89,3.89,0,0,0,13,21V61.39a3.89,3.89,0,0,0,3.89,3.89H80.08A3.89,3.89,0,0,0,84,61.39V21a3.89,3.89,0,0,0-3.89-3.89Z"/><path d="M90.93,80.86H5.07a3.08,3.08,0,0,1-1.75-5.6l4.45-3.08a10.35,10.35,0,0,1,5.92-1.85H82.31a10.35,10.35,0,0,1,5.92,1.85l4.45,3.08a3.08,3.08,0,0,1-1.75,5.6ZM13.69,72.33a8.33,8.33,0,0,0-4.78,1.5L4.46,76.91a1.07,1.07,0,0,0,.61,2H90.93a1.07,1.07,0,0,0,.61-2l-4.45-3.08a8.33,8.33,0,0,0-4.78-1.5Z"/><path d="M59,40.13a1,1,0,0,1-.7-.29,13.79,13.79,0,0,0-19.49,0,1,1,0,1,1-1.42-1.42,15.81,15.81,0,0,1,22.32,0,1,1,0,0,1,0,1.42A1,1,0,0,1,59,40.13Z"/><path d="M43,45.09a1,1,0,0,1-.7-1.71,8.78,8.78,0,0,1,12.39,0,1,1,0,1,1-1.42,1.42,6.76,6.76,0,0,0-9.56,0A1,1,0,0,1,43,45.09Z"/><path d="M49,50.05a1.08,1.08,0,0,1-.53-.14,1,1,0,0,1-1.23-.15,1,1,0,0,1,0-1.41,1.74,1.74,0,0,1,2.46,0,1,1,0,0,1,0,1.41A1,1,0,0,1,49,50.05Z"/></svg>