<svg width="529" height="529" viewBox="0 0 529 529" fill="none" xmlns="http://www.w3.org/2000/svg">
    <g clip-path="url(#clip0_189_3)">
    <path d="M264.2 515.8C197 515.8 133.8 489.6 86.3001 442.1C38.8001 394.6 12.6001 331.4 12.6001 264.2C12.6001 197 38.7001 133.7 86.2001 86.2C133.7 38.7 196.9 12.5 264.1 12.5C331.3 12.5 394.5 38.7 442 86.2C489.5 133.7 515.7 196.9 515.7 264.1C515.7 331.3 489.5 394.5 442 442C394.6 489.6 331.4 515.8 264.2 515.8Z" fill="url(#paint0_radial_189_3)" stroke="#31C5F0" stroke-width="25" stroke-miterlimit="10"/>
    <path d="M264.2 493.2C390.673 493.2 493.2 390.673 493.2 264.2C493.2 137.727 390.673 35.2 264.2 35.2C137.727 35.2 35.2002 137.727 35.2002 264.2C35.2002 390.673 137.727 493.2 264.2 493.2Z" fill="url(#paint1_radial_189_3)"/>
    <path d="M264.2 493.2C390.673 493.2 493.2 390.673 493.2 264.2C493.2 137.727 390.673 35.2 264.2 35.2C137.727 35.2 35.2002 137.727 35.2002 264.2C35.2002 390.673 137.727 493.2 264.2 493.2Z" fill="url(#paint2_radial_189_3)"/>
    <path d="M361.5 232.1C343.4 232.1 337.2 241.3 337.2 248.9C337.2 257.2 341.3 262.9 365.6 275.5C401.5 292.9 412.8 309.7 412.8 334.2C412.8 370.9 384.8 390.7 347 390.7C327 390.7 309.8 386.6 300 380.9C298.3 380.2 298.1 379 298.1 377.3V343.4C298.1 341.1 299.2 340.4 300.9 341.5C315.3 350.9 331.9 355.1 347 355.1C365.1 355.1 372.7 347.5 372.7 337.2C372.7 328.9 367.4 321.7 344.3 309.6C311.8 294.1 298.2 278.3 298.2 251.8C298.2 222.2 321.4 197.7 361.5 197.7C381.2 197.7 395 200.7 402.5 204.1C404.4 205.2 404.8 207.1 404.8 208.7V240.1C404.8 242 403.7 243.1 401.4 242.4C391.3 236 376.4 232.1 361.5 232.1ZM164.3 259.3C169.6 259.7 173.7 259.7 182.8 259.7C209.6 259.7 234.8 250.3 234.8 213.8C234.8 184.7 216.7 170 186.2 170C177 170 168.3 170.4 164.1 170.7L164.3 259.3ZM123.4 137.6C123.4 135.9 126.6 134.8 128.5 134.8C143.2 134.1 165 133.7 187.6 133.7C251.1 133.7 275.9 168.5 275.9 213C275.9 271.2 233.7 296.2 181.8 296.2C173.1 296.2 170.1 295.8 163.9 295.8V383.8C163.9 385.7 163.2 386.6 161.1 386.6H126C124.1 386.6 123.2 385.9 123.2 383.8V137.6H123.4Z" fill="#31C5F0"/>
    </g>
    <defs>
    <radialGradient id="paint0_radial_189_3" cx="0" cy="0" r="1" gradientUnits="userSpaceOnUse" gradientTransform="translate(178.269 125.564) scale(381.449 381.449)">
    <stop stop-color="#34364E" stop-opacity="0.98"/>
    <stop offset="1" stop-color="#0C0824"/>
    </radialGradient>
    <radialGradient id="paint1_radial_189_3" cx="0" cy="0" r="1" gradientUnits="userSpaceOnUse" gradientTransform="translate(175.657 125.28) scale(393.937 381.403)">
    <stop stop-color="#34364E" stop-opacity="0.98"/>
    <stop offset="1" stop-color="#0C0824"/>
    </radialGradient>
    <radialGradient id="paint2_radial_189_3" cx="0" cy="0" r="1" gradientUnits="userSpaceOnUse" gradientTransform="translate(186.009 138.052) scale(347.076)">
    <stop stop-color="#34364E" stop-opacity="0.98"/>
    <stop offset="1" stop-color="#0C0824"/>
    </radialGradient>
    <clipPath id="clip0_189_3">
    <rect width="528.3" height="528.3" fill="white"/>
    </clipPath>
    </defs>
    </svg>
    